<?xml version="1.0" encoding="UTF-8"?>
<svg width="512px" height="512px" viewBox="0 0 512 512" version="1.1" xmlns="http://www.w3.org/2000/svg" xmlns:xlink="http://www.w3.org/1999/xlink">
    <!-- Generator: Sketch 61.2 (89653) - https://sketch.com -->
    <title>编组 5</title>
    <desc>Created with Sketch.</desc>
    <defs>
        <rect id="path-1" x="0" y="0" width="512" height="512"></rect>
    </defs>
    <g id="绩效管理" stroke="none" stroke-width="1" fill="none" fill-rule="evenodd">
        <g id="编组-5">
            <mask id="mask-2" fill="white">
                <use xlink:href="#path-1"></use>
            </mask>
            <use id="矩形" fill="#FFFFFF" opacity="0" xlink:href="#path-1"></use>
            <g id="编组" mask="url(#mask-2)">
                <g transform="translate(37.000000, 126.000000)">
                    <g transform="translate(0.000000, 0.001000)">
                        <path d="M202.8999,-0.0016 C244.1839,-0.0016 279.9729,23.5524 297.5709,57.9644 L297.894013,58.617255 C301.253751,58.2249798 305.001582,57.9989 309.1777,57.9989 C351.041402,57.9989 385.131616,91.2961208 386.434089,132.864047 C415.655712,137.481951 437.9996,162.796889 437.9996,193.3316 C437.9996,227.1456 410.6036,254.5536 376.8096,254.5536 C375.7236,254.5536 374.6616,254.4476 373.5896,254.3916 C398.7606,252.7256 418.6786,231.8256 418.6786,206.2216 C418.6786,179.5286 397.0496,157.8866 370.3686,157.8866 C365.8476,157.8866 362.8746,158.0076 358.7246,159.1686 C360.8676,151.2196 359.7166,138.9026 359.7166,138.9026 C359.7166,138.9026 359.78028,138.864591 359.900504,138.79426 L359.9317,138.9999 C359.7307,137.6639 359.5657,136.3159 359.2797,135.0119 C353.2437,107.5499 328.7777,86.9999 299.5147,86.9999 C295.0587,86.9999 290.7127,87.4749 286.5257,88.3809 C284.2857,88.8659 282.1117,89.5159 279.9687,90.2379 C275.615912,77.4912333 270.572913,70.9425918 270.530963,70.8882411 L270.5259,71.1014 C269.5079,69.8434 268.5209,68.5584 267.4379,67.3584 C251.5249,49.7394 228.5039,38.6644 202.8999,38.6644 C168.9359,38.6644 139.5199,58.1464 125.2069,86.5484 C124.5059,87.9354 123.8499,89.3484 123.2239,90.7764 L122.962319,90.7701659 C123.099836,90.8307949 123.237362,90.8918393 123.3749,90.9533 C121.5829,93.5373 119.2069,101.0093 119.1729,114.6893 C118.0609,114.4293 116.9649,114.1313 115.8349,113.9253 C111.6899,113.1713 107.4209,112.7763 103.0589,112.7763 C63.9299,112.7763 32.2059,144.5143 32.2059,183.6663 C32.2059,222.8153 63.9299,254.5533 103.0589,254.5533 C116.3399,254.5533 128.7419,250.8663 139.3619,244.5073 C139.3769,244.5943 139.3889,244.6743 139.4009,244.7643 C125.0009,254.9213 107.5249,261.0003 88.5669,261.0003 C39.6529,261.0003 -0.0001,221.3273 -0.0001,172.3883 C-0.0001,123.4483 39.6529,83.7773 88.5669,83.7773 C91.2839152,83.7773 93.9157996,83.8780434 96.4812779,84.0835042 C96.5629066,83.9147369 96.6116565,83.8064971 96.6179,83.7774 C107.0229,35.9714 151.9999,-0.0016 202.8999,-0.0016 Z M260.8681,220.7209 C260.8681,225.1689 241.4031,248.1099 217.3911,248.1099 C193.3791,248.1099 173.9121,225.1689 173.9121,220.7209 C173.9121,216.2719 193.3791,231.9979 217.3911,231.9979 C241.4031,231.9979 260.8681,216.2719 260.8681,220.7209 Z M132.0463,145.0003 C149.8323,145.0003 164.2523,159.4263 164.2523,177.2193 C164.2523,195.0163 149.8323,209.4433 132.0463,209.4433 C114.2593,209.4433 99.8403,195.0163 99.8403,177.2193 C99.8403,159.4263 114.2593,145.0003 132.0463,145.0003 Z M299.5142,145.0003 C317.3022,145.0003 331.7212,159.4263 331.7212,177.2193 C331.7212,195.0163 317.3022,209.4433 299.5142,209.4433 C281.7282,209.4433 267.3082,195.0163 267.3082,177.2193 C267.3082,159.4263 281.7282,145.0003 299.5142,145.0003 Z M141.4253,157.6953 C134.2033,157.6953 128.3483,163.5433 128.3483,170.7563 C128.3483,177.9693 134.2033,183.8163 141.4253,183.8163 C148.6473,183.8163 154.5013,177.9693 154.5013,170.7563 C154.5013,163.5433 148.6473,157.6953 141.4253,157.6953 Z M288.6592,157.6953 C281.4372,157.6953 275.5832,163.5433 275.5832,170.7563 C275.5832,177.9693 281.4372,183.8163 288.6592,183.8163 C295.8812,183.8163 301.7352,177.9693 301.7352,170.7563 C301.7352,163.5433 295.8812,157.6953 288.6592,157.6953 Z" id="形状结合" fill="#FF7B05"></path>
                    </g>
                    <g transform="translate(93.000000, 0.001000)"></g>
                </g>
            </g>
        </g>
    </g>
</svg>